# xmcd
#
# Track frame offsets: 
#        150
#        17608
#        43287
#        67415
#        98494
#        119352
#        142397
#        161491
#        194760
#        209737
#
# Disc length: 3017 seconds
#
# Revision: 2
# Processed by: cddbd v1.5.2PL0 Copyright (c) Steve Scherf et al.
# Submitted via: ExactAudioCopy v1.0b1
#
DISCID=a20bc70a
DTITLE=Maria Kannegaard - Maryland
DYEAR=2008
DGENRE=Contemporary Jazz
TTITLE0=Sjufire
TTITLE1=Ruslende
TTITLE2=Ballade 1
TTITLE3=Av veien
TTITLE4=Bethesda
TTITLE5=En tålmodig sjel
TTITLE6=Ballade 2
TTITLE7=Hit og dit - Ingen hast
TTITLE8=Første vake
TTITLE9=Yeah, Yeah
EXTD=
EXTT0=
EXTT1=
EXTT2=
EXTT3=
EXTT4=
EXTT5=
EXTT6=
EXTT7=
EXTT8=
EXTT9=
PLAYORDER=
